<svg width="8" height="6" viewBox="0 0 8 6" fill="none" xmlns="http://www.w3.org/2000/svg">
<rect width="8" height="6" fill="#1E1E1E"/>
<rect width="1215" height="446" transform="translate(-279 -149)" fill="white"/>
<rect x="-217.5" y="-16.5" width="235" height="39" rx="7.5" fill="white"/>
<path d="M3.67434 5.43722C3.77372 5.48206 3.88152 5.50518 3.99054 5.50504C4.0998 5.50494 4.20779 5.48158 4.30733 5.43652C4.40686 5.39147 4.49567 5.32574 4.56785 5.24372L7.83705 1.52787C7.89266 1.46754 7.93564 1.3967 7.96348 1.31951C7.99132 1.24233 8.00345 1.16036 7.99916 1.07841C7.99486 0.996475 7.97423 0.91622 7.93848 0.842367C7.90272 0.768515 7.85256 0.702554 7.79095 0.648364C7.72934 0.594173 7.65752 0.552845 7.57971 0.526809C7.50189 0.500774 7.41966 0.490555 7.33784 0.496755L0.647864 0.517349C0.487286 0.508933 0.329789 0.563676 0.209049 0.669873C0.0883094 0.776071 0.0139105 0.925292 0.0017611 1.08563C-0.0103883 1.24597 0.0406761 1.4047 0.144035 1.52787L3.41423 5.24505C3.48628 5.32688 3.57496 5.39239 3.67434 5.43722Z" fill="#484848"/>
<rect x="-217.5" y="-16.5" width="235" height="39" rx="7.5" stroke="#DDDDDD"/>
</svg>
